<svg width="27" height="35" viewBox="0 0 27 35" fill="none" xmlns="http://www.w3.org/2000/svg">
<path d="M1 17C1 10.3726 6.37258 5 13 5V5C19.6274 5 25 10.3726 25 17V17C25 23.6274 19.6274 29 13 29V29C6.37258 29 1 23.6274 1 17V17Z" fill="#C9DFDA"/>
<path d="M1 17C1 10.3726 6.37258 5 13 5V5V29V29C6.37258 29 1 23.6274 1 17V17Z" fill="#E6C4C1"/>
<path d="M6.4125 24.3375C5.67083 24.3375 4.975 24.2875 4.325 24.1875C3.68333 24.0958 3.09583 23.975 2.5625 23.825C2.0375 23.6667 1.575 23.5042 1.175 23.3375L0.8375 19.7375C1.49583 20.0458 2.275 20.3333 3.175 20.6C4.075 20.8583 5.02917 20.9875 6.0375 20.9875C7.0125 20.9875 7.70417 20.8667 8.1125 20.625C8.52917 20.375 8.7375 19.9875 8.7375 19.4625V19.375C8.7375 19.025 8.64167 18.7417 8.45 18.525C8.26667 18.3 7.95417 18.0958 7.5125 17.9125C7.07917 17.7208 6.49167 17.5167 5.75 17.3C4.63333 16.9667 3.7 16.5958 2.95 16.1875C2.20833 15.7792 1.65417 15.2708 1.2875 14.6625C0.920833 14.0458 0.7375 13.2667 0.7375 12.325V12.1625C0.7375 10.7125 1.22917 9.60417 2.2125 8.8375C3.20417 8.07083 4.65833 7.6875 6.575 7.6875C7.725 7.6875 8.71667 7.7875 9.55 7.9875C10.3917 8.1875 11.1042 8.425 11.6875 8.7L12.025 12.05C11.3833 11.7417 10.6542 11.4833 9.8375 11.275C9.02917 11.0583 8.1625 10.95 7.2375 10.95C6.5875 10.95 6.075 11.0042 5.7 11.1125C5.33333 11.2208 5.075 11.3792 4.925 11.5875C4.775 11.7875 4.7 12.0333 4.7 12.325V12.375C4.7 12.675 4.78333 12.9375 4.95 13.1625C5.125 13.3875 5.43333 13.6042 5.875 13.8125C6.325 14.0208 6.9625 14.2458 7.7875 14.4875C8.89583 14.8125 9.8125 15.1625 10.5375 15.5375C11.2708 15.9042 11.8167 16.3833 12.175 16.975C12.5417 17.5583 12.725 18.3375 12.725 19.3125V19.5125C12.725 21.1208 12.2042 22.3292 11.1625 23.1375C10.1208 23.9375 8.5375 24.3375 6.4125 24.3375ZM18.8635 24H14.951V8.025H18.8635V24ZM17.176 20.7125H25.526V24H17.176V20.7125Z" fill="white"/>
<path d="M4.325 24.1875L4.37062 23.891L4.36743 23.8905L4.325 24.1875ZM2.5625 23.825L2.47586 24.1123L2.48128 24.1138L2.5625 23.825ZM1.175 23.3375L0.87631 23.3655L0.893143 23.5451L1.05962 23.6144L1.175 23.3375ZM0.8375 19.7375L0.964742 19.4658L0.489864 19.2434L0.53881 19.7655L0.8375 19.7375ZM3.175 20.6L3.08977 20.8876L3.09223 20.8884L3.175 20.6ZM8.1125 20.625L8.2653 20.8832L8.26685 20.8822L8.1125 20.625ZM8.45 18.525L8.21724 18.7147L8.2253 18.7238L8.45 18.525ZM7.5125 17.9125L7.39112 18.1869L7.39749 18.1896L7.5125 17.9125ZM5.75 17.3L5.66419 17.5875L5.66588 17.588L5.75 17.3ZM2.95 16.1875L2.80531 16.4503L2.80655 16.451L2.95 16.1875ZM1.2875 14.6625L1.02963 14.8158L1.03056 14.8174L1.2875 14.6625ZM2.2125 8.8375L2.02901 8.60016L2.02804 8.60091L2.2125 8.8375ZM9.55 7.9875L9.47999 8.27922L9.48065 8.27937L9.55 7.9875ZM11.6875 8.7L11.986 8.66993L11.969 8.50103L11.8154 8.42864L11.6875 8.7ZM12.025 12.05L11.8951 12.3204L12.3771 12.552L12.3235 12.0199L12.025 12.05ZM9.8375 11.275L9.75982 11.5648L9.76335 11.5657L9.8375 11.275ZM5.7 11.1125L5.61674 10.8243L5.615 10.8248L5.7 11.1125ZM4.925 11.5875L5.16505 11.7675L5.16846 11.7628L4.925 11.5875ZM4.95 13.1625L4.70887 13.3411L4.71319 13.3467L4.95 13.1625ZM5.875 13.8125L5.74701 14.0838L5.74896 14.0847L5.875 13.8125ZM7.7875 14.4875L7.87192 14.1996L7.87184 14.1996L7.7875 14.4875ZM10.5375 15.5375L10.3997 15.804L10.4033 15.8058L10.5375 15.5375ZM12.175 16.975L11.9184 17.1304L11.921 17.1347L12.175 16.975ZM11.1625 23.1375L11.3452 23.3754L11.3464 23.3745L11.1625 23.1375ZM6.4125 24.0375C5.68421 24.0375 5.00376 23.9884 4.37062 23.891L4.27938 24.484C4.94624 24.5866 5.65746 24.6375 6.4125 24.6375V24.0375ZM4.36743 23.8905C3.73672 23.8004 3.1624 23.6821 2.64372 23.5362L2.48128 24.1138C3.02927 24.2679 3.62995 24.3913 4.28257 24.4845L4.36743 23.8905ZM2.64912 23.5378C2.13145 23.3817 1.6789 23.2225 1.29038 23.0606L1.05962 23.6144C1.4711 23.7859 1.94355 23.9517 2.47588 24.1122L2.64912 23.5378ZM1.47369 23.3095L1.13619 19.7095L0.53881 19.7655L0.87631 23.3655L1.47369 23.3095ZM0.710258 20.0092C1.38543 20.3254 2.17929 20.6179 3.08977 20.8876L3.26023 20.3124C2.37071 20.0488 1.60624 19.7663 0.964742 19.4658L0.710258 20.0092ZM3.09223 20.8884C4.02113 21.155 5.00331 21.2875 6.0375 21.2875V20.6875C5.05502 20.6875 4.12887 20.5617 3.25777 20.3116L3.09223 20.8884ZM6.0375 21.2875C7.02051 21.2875 7.7829 21.1687 8.2653 20.8832L7.9597 20.3668C7.62544 20.5647 7.00449 20.6875 6.0375 20.6875V21.2875ZM8.26685 20.8822C8.78234 20.573 9.0375 20.0826 9.0375 19.4625H8.4375C8.4375 19.8924 8.276 20.177 7.95815 20.3678L8.26685 20.8822ZM9.0375 19.4625V19.375H8.4375V19.4625H9.0375ZM9.0375 19.375C9.0375 18.9679 8.92459 18.6087 8.6747 18.3262L8.2253 18.7238C8.35874 18.8746 8.4375 19.0821 8.4375 19.375H9.0375ZM8.68257 18.3355C8.45383 18.0548 8.08871 17.8269 7.62751 17.6354L7.39749 18.1896C7.81963 18.3648 8.07951 18.5452 8.21743 18.7145L8.68257 18.3355ZM7.63385 17.6381C7.1833 17.4389 6.58165 17.2304 5.83412 17.012L5.66588 17.588C6.40169 17.8029 6.97503 18.0028 7.39115 18.1869L7.63385 17.6381ZM5.83581 17.0125C4.73244 16.6832 3.81987 16.3195 3.09345 15.924L2.80655 16.451C3.58014 16.8722 4.53422 17.2502 5.66419 17.5875L5.83581 17.0125ZM3.09469 15.9247C2.39038 15.5369 1.87903 15.0628 1.54444 14.5076L1.03056 14.8174C1.4293 15.4789 2.02629 16.0214 2.80531 16.4503L3.09469 15.9247ZM1.54536 14.5092C1.21361 13.9512 1.0375 13.2291 1.0375 12.325H0.4375C0.4375 13.3042 0.628053 14.1404 1.02964 14.8158L1.54536 14.5092ZM1.0375 12.325V12.1625H0.4375V12.325H1.0375ZM1.0375 12.1625C1.0375 10.788 1.49896 9.77423 2.39696 9.07409L2.02804 8.60091C0.959377 9.4341 0.4375 10.637 0.4375 12.1625H1.0375ZM2.39599 9.07484C3.31378 8.36529 4.69148 7.9875 6.575 7.9875V7.3875C4.62519 7.3875 3.09456 7.77637 2.02901 8.60016L2.39599 9.07484ZM6.575 7.9875C7.70888 7.9875 8.67586 8.08622 9.47999 8.27922L9.62001 7.69578C8.75748 7.48877 7.74112 7.3875 6.575 7.3875V7.9875ZM9.48065 8.27937C10.3085 8.47609 11.0001 8.70761 11.5596 8.97136L11.8154 8.42864C11.2082 8.14239 10.4748 7.89891 9.61936 7.69563L9.48065 8.27937ZM11.389 8.73007L11.7265 12.0801L12.3235 12.0199L11.986 8.66993L11.389 8.73007ZM12.1549 11.7796C11.4925 11.4613 10.7441 11.1967 9.91166 10.9843L9.76335 11.5657C10.5642 11.77 11.2742 12.0221 11.8951 12.3204L12.1549 11.7796ZM9.91517 10.9852C9.079 10.7611 8.186 10.65 7.2375 10.65V11.25C8.139 11.25 8.97933 11.3556 9.75983 11.5648L9.91517 10.9852ZM7.2375 10.65C6.57537 10.65 6.0308 10.7047 5.61674 10.8243L5.78326 11.4007C6.11921 11.3037 6.59963 11.25 7.2375 11.25V10.65ZM5.615 10.8248C5.21439 10.9432 4.88538 11.1291 4.68154 11.4122L5.16846 11.7628C5.26462 11.6292 5.45228 11.4985 5.785 11.4002L5.615 10.8248ZM4.685 11.4075C4.48982 11.6677 4.4 11.9796 4.4 12.325H5C5 12.087 5.06018 11.9073 5.165 11.7675L4.685 11.4075ZM4.4 12.325V12.375H5V12.325H4.4ZM4.4 12.375C4.4 12.7344 4.50119 13.0606 4.70893 13.3411L5.19107 12.9839C5.06548 12.8144 5 12.6156 5 12.375H4.4ZM4.71319 13.3467C4.93087 13.6265 5.28911 13.8678 5.74701 14.0838L6.00299 13.5412C5.57756 13.3405 5.31913 13.1485 5.18681 12.9783L4.71319 13.3467ZM5.74896 14.0847C6.21875 14.3022 6.87262 14.5321 7.70317 14.7754L7.87184 14.1996C7.05238 13.9596 6.43125 13.7394 6.00104 13.5403L5.74896 14.0847ZM7.70308 14.7754C8.7999 15.097 9.69715 15.4406 10.3997 15.804L10.6753 15.271C9.92785 14.8844 8.99177 14.528 7.87192 14.1996L7.70308 14.7754ZM10.4033 15.8058C11.0955 16.1519 11.5945 16.5955 11.9184 17.1304L12.4316 16.8196C12.0389 16.1711 11.4461 15.6564 10.6717 15.2692L10.4033 15.8058ZM11.921 17.1347C12.2476 17.6542 12.425 18.3716 12.425 19.3125H13.025C13.025 18.3034 12.8357 17.4624 12.429 16.8153L11.921 17.1347ZM12.425 19.3125V19.5125H13.025V19.3125H12.425ZM12.425 19.5125C12.425 21.0508 11.9308 22.1616 10.9786 22.9005L11.3464 23.3745C12.4775 22.4968 13.025 21.1909 13.025 19.5125H12.425ZM10.9798 22.8996C10.0141 23.6412 8.50916 24.0375 6.4125 24.0375V24.6375C8.56584 24.6375 10.2275 24.2338 11.3452 23.3754L10.9798 22.8996ZM18.8635 24V24.3H19.1635V24H18.8635ZM14.951 24H14.651V24.3H14.951V24ZM14.951 8.025V7.725H14.651V8.025H14.951ZM18.8635 8.025H19.1635V7.725H18.8635V8.025ZM17.176 20.7125V20.4125H16.876V20.7125H17.176ZM25.526 20.7125H25.826V20.4125H25.526V20.7125ZM25.526 24V24.3H25.826V24H25.526ZM17.176 24H16.876V24.3H17.176V24ZM18.8635 23.7H14.951V24.3H18.8635V23.7ZM15.251 24V8.025H14.651V24H15.251ZM14.951 8.325H18.8635V7.725H14.951V8.325ZM18.5635 8.025V24H19.1635V8.025H18.5635ZM17.176 21.0125H25.526V20.4125H17.176V21.0125ZM25.226 20.7125V24H25.826V20.7125H25.226ZM25.526 23.7H17.176V24.3H25.526V23.7ZM17.476 24V20.7125H16.876V24H17.476Z" fill="#555555"/>
</svg>
